<svg xmlns="http://www.w3.org/2000/svg" width="1200" height="400" viewBox="0 0 1200 400" role="img" aria-labelledby="title desc">
  <title id="title">Local Data Stack research prototype</title>
  <desc id="desc">A local-first K-12 accountability analytics research prototype connecting Aeries and CDE data to DuckDB, dashboards, natural-language SQL, evaluation, and human review.</desc>
  <defs>
    <marker id="arrow" viewBox="0 0 10 10" refX="8" refY="5" markerWidth="7" markerHeight="7" orient="auto-start-reverse">
      <path d="M 0 0 L 10 5 L 0 10 z" fill="#C2703A"/>
    </marker>
  </defs>
  <rect width="1200" height="400" rx="24" fill="#FAF8F3"/>
  <path d="M64 76H1136" stroke="#E9E5DA"/>
  <text x="64" y="55" fill="#C2703A" font-family="ui-monospace, SFMono-Regular, Menlo, monospace" font-size="18" font-weight="700" letter-spacing="2">PHASE 0 · CASE-STUDY COLLABORATORS WANTED</text>
  <g transform="translate(64 112)">
    <text x="0" y="60" fill="#1A1A1A" font-family="Georgia, Songti SC, serif" font-size="68">Local Data</text>
    <text x="0" y="128" fill="#1E3A5F" font-family="Georgia, Songti SC, serif" font-size="68">Stack</text>
    <text x="0" y="174" fill="#53606D" font-family="-apple-system, BlinkMacSystemFont, Segoe UI, sans-serif" font-size="22">A reproducible research prototype for local AI-assisted</text>
    <text x="0" y="204" fill="#53606D" font-family="-apple-system, BlinkMacSystemFont, Segoe UI, sans-serif" font-size="22">K-12 accountability analytics—and the failures worth studying.</text>
    <g transform="translate(0 232)" font-family="ui-monospace, SFMono-Regular, Menlo, monospace" font-size="18" font-weight="700">
      <rect width="116" height="38" rx="9" fill="#E9E5DA"/><text x="18" y="25" fill="#1E3A5F">DUCKDB</text>
      <rect x="128" width="82" height="38" rx="9" fill="#E9E5DA"/><text x="151" y="25" fill="#1E3A5F">DBT</text>
      <rect x="222" width="84" height="38" rx="9" fill="#E9E5DA"/><text x="243" y="25" fill="#1E3A5F">RILL</text>
      <rect x="318" width="126" height="38" rx="9" fill="#E9E5DA"/><text x="335" y="25" fill="#1E3A5F">NL→SQL</text>
    </g>
  </g>
  <g transform="translate(655 102)">
    <rect width="481" height="232" rx="18" fill="#E9E5DA" stroke="#E9E5DA"/>
    <text x="28" y="40" fill="#1E3A5F" font-family="ui-monospace, SFMono-Regular, Menlo, monospace" font-size="18" font-weight="700" letter-spacing="1">FROM SOURCE TO STUDY</text>
    <g font-family="-apple-system, BlinkMacSystemFont, Segoe UI, sans-serif" font-size="20" font-weight="650" text-anchor="middle">
      <rect x="28" y="72" width="92" height="48" rx="10" fill="#FAF8F3" stroke="#53606D"/><text x="74" y="103" fill="#1A1A1A">Aeries</text>
      <rect x="28" y="138" width="92" height="48" rx="10" fill="#FAF8F3" stroke="#53606D"/><text x="74" y="169" fill="#1A1A1A">CDE</text>
      <path d="M132 129H178" stroke="#C2703A" stroke-width="2" marker-end="url(#arrow)"/>
      <rect x="190" y="105" width="104" height="48" rx="10" fill="#1E3A5F"/><text x="242" y="136" fill="#FAF8F3">DuckDB</text>
      <path d="M306 129H348" stroke="#C2703A" stroke-width="2" marker-end="url(#arrow)"/>
      <rect x="360" y="72" width="92" height="48" rx="10" fill="#FAF8F3" stroke="#53606D"/><text x="406" y="103" fill="#1A1A1A">Rill</text>
      <rect x="360" y="138" width="92" height="48" rx="10" fill="#FAF8F3" stroke="#53606D"/><text x="406" y="169" fill="#1A1A1A">NL→SQL</text>
    </g>
    <path d="M406 186V192H242V164" fill="none" stroke="#4A7C59" stroke-width="2" marker-end="url(#arrow)"/>
    <text x="242" y="220" text-anchor="middle" fill="#4A7C59" font-family="ui-monospace, SFMono-Regular, Menlo, monospace" font-size="18" font-weight="700">TRACE · REVIEW · STUDY</text>
  </g>
  <g transform="translate(1082 28)">
    <rect width="12" height="12" rx="2" fill="#B53A3A"/><rect x="16" width="12" height="12" rx="2" fill="#D77732"/><rect x="32" width="12" height="12" rx="2" fill="#E4BD3F"/>
    <rect y="16" width="12" height="12" rx="2" fill="#D77732"/><rect x="16" y="16" width="12" height="12" rx="2" fill="#5F9460"/><rect x="32" y="16" width="12" height="12" rx="2" fill="#376FA3"/>
  </g>
</svg>
